# Blender v2.79 (sub 0) OBJ File: 'start.blend'
# www.blender.org
mtllib start.mtl
o Cube_Cube.001
v -1.000000 -1.000000 -1.000000
v -1.000000 -1.000000 1.000000
v -1.000000 1.000000 -1.000000
v -1.000000 1.000000 1.000000
v 1.000000 -1.000000 -1.000000
v 1.000000 -1.000000 1.000000
v 1.000000 1.000000 -1.000000
v 1.000000 1.000000 1.000000
v 1.000000 -0.800000 1.000000
v 1.000000 0.800000 1.000000
v -0.800000 0.800000 1.000000
v -0.800000 -0.800000 1.000000
v 1.000000 -0.800000 -0.800000
v 1.000000 0.800000 -0.800000
v -0.800000 -0.800000 -0.800000
v -0.800000 0.800000 -0.800000
vt 0.274988 0.524868
vt 0.025108 0.524868
vt 0.025108 0.274988
vt 0.274988 0.274988
vt 0.274988 0.025108
vt 0.524867 0.025108
vt 0.524868 0.274988
vt 0.524868 0.524868
vt 0.524868 0.774747
vt 0.274988 0.774747
vt 0.550096 0.225012
vt 0.774988 0.225012
vt 0.774988 0.424916
vt 0.550096 0.424916
vt 0.774988 0.000120
vt 0.999880 0.000120
vt 0.999880 0.225012
vt 0.999880 0.424916
vt 0.999880 0.649807
vt 0.774988 0.649807
vt 0.549856 0.774747
vt 0.549856 0.549855
vt 0.549856 0.299976
vt 0.549856 0.499880
vt 0.549855 0.025108
vt 0.549856 0.250000
vt 0.000120 0.499880
vt 0.000120 0.299976
vt 0.299976 0.000120
vt 0.524868 0.000120
vt 0.524868 0.799735
vt 0.299976 0.799735
vn -1.0000 0.0000 0.0000
vn 0.0000 1.0000 0.0000
vn 0.0000 -1.0000 0.0000
vn 0.0000 0.0000 -1.0000
vn 1.0000 0.0000 0.0000
vn 0.0000 0.0000 1.0000
usemtl None
s off
f 1/1/1 2/2/1 4/3/1 3/4/1
f 3/4/2 4/5/2 8/6/2 7/7/2
f 5/8/3 6/9/3 2/10/3 1/1/3
f 3/4/4 7/7/4 5/8/4 1/1/4
f 12/11/5 15/12/5 16/13/5 11/14/5
f 12/15/2 9/16/2 13/17/2 15/12/2
f 16/13/3 14/18/3 10/19/3 11/20/3
f 16/13/6 15/12/6 13/17/6 14/18/6
f 9/21/5 6/9/5 5/8/5 13/22/5
f 7/7/5 14/23/5 13/24/5 5/8/5
f 8/6/5 10/25/5 14/26/5 7/7/5
f 4/3/6 2/2/6 12/27/6 11/28/6
f 4/5/6 11/29/6 10/30/6 8/6/6
f 9/31/6 12/32/6 2/10/6 6/9/6
l 1 15
l 3 16
