# Blender v2.79 (sub 0) OBJ File: 'end.blend'
# www.blender.org
mtllib end.mtl
o Cube_Cube.001
v -1.000000 -1.000000 -1.000000
v -1.000000 -1.000000 1.000000
v -1.000000 1.000000 -1.000000
v -1.000000 1.000000 1.000000
v 1.000000 -1.000000 -1.000000
v 1.000000 -1.000000 1.000000
v 1.000000 1.000000 -1.000000
v 1.000000 1.000000 1.000000
v 1.000000 -0.800000 1.000000
v -0.800000 -0.800000 1.000000
v -0.800000 0.800000 1.000000
v 1.000000 0.800000 1.000000
v -0.800000 0.800000 -0.800000
v -0.800000 -0.800000 -0.800000
v 1.000000 0.800000 -0.800000
v 1.000000 -0.800000 -0.800000
v 0.000000 0.720000 -0.800000
v 0.140464 0.706165 -0.800000
v 0.275531 0.665194 -0.800000
v 0.400010 0.598659 -0.800000
v 0.509116 0.509118 -0.800000
v 0.598658 0.400011 -0.800000
v 0.665193 0.275533 -0.800000
v 0.706165 0.140466 -0.800000
v 0.720000 0.000001 -0.800000
v 0.706165 -0.140464 -0.800000
v 0.665193 -0.275531 -0.800000
v 0.598658 -0.400010 -0.800000
v 0.509117 -0.509116 -0.800000
v 0.400011 -0.598658 -0.800000
v 0.275532 -0.665193 -0.800000
v 0.140465 -0.706165 -0.800000
v 0.000000 -0.720000 -0.800000
v -0.140465 -0.706165 -0.800000
v -0.275532 -0.665193 -0.800000
v -0.400010 -0.598658 -0.800000
v -0.509117 -0.509117 -0.800000
v -0.598658 -0.400011 -0.800000
v -0.665194 -0.275532 -0.800000
v -0.706166 -0.140465 -0.800000
v -0.720000 0.000000 -0.800000
v -0.706166 0.140465 -0.800000
v -0.665193 0.275532 -0.800000
v -0.598658 0.400010 -0.800000
v -0.509117 0.509117 -0.800000
v -0.400010 0.598658 -0.800000
v -0.275532 0.665193 -0.800000
v -0.140465 0.706165 -0.800000
v 0.000000 0.720000 -1.000000
v 0.140464 0.706166 -1.000000
v 0.275531 0.665194 -1.000000
v 0.400010 0.598659 -1.000000
v 0.509116 0.509117 -1.000000
v 0.598658 0.400011 -1.000000
v 0.665193 0.275533 -1.000000
v 0.706165 0.140466 -1.000000
v 0.720000 0.000001 -1.000000
v 0.706166 -0.140465 -1.000000
v 0.665193 -0.275532 -1.000000
v 0.598658 -0.400010 -1.000000
v 0.509117 -0.509116 -1.000000
v 0.400011 -0.598658 -1.000000
v 0.275532 -0.665193 -1.000000
v 0.140465 -0.706165 -1.000000
v 0.000000 -0.720000 -1.000000
v -0.140465 -0.706165 -1.000000
v -0.275532 -0.665193 -1.000000
v -0.400010 -0.598658 -1.000000
v -0.509117 -0.509117 -1.000000
v -0.598658 -0.400010 -1.000000
v -0.665193 -0.275532 -1.000000
v -0.706165 -0.140465 -1.000000
v -0.720000 0.000000 -1.000000
v -0.706165 0.140465 -1.000000
v -0.662873 0.270207 -1.003473
v -0.598658 0.400011 -1.000000
v -0.509117 0.509117 -1.000000
v -0.400010 0.598658 -1.000000
v -0.275532 0.665193 -1.000000
v -0.140465 0.706165 -1.000000
v -0.509117 -0.509117 -0.969231
v -0.598658 -0.400010 -0.969231
v -0.665193 -0.275532 -0.969231
v -0.706165 -0.140465 -0.969231
v -0.720000 0.000000 -0.969231
v -0.706165 0.140465 -0.969231
v -0.663230 0.271026 -0.972169
v -0.598658 0.400011 -0.969231
v -0.509117 0.509117 -0.969231
v -0.400010 0.598658 -0.969231
v -0.275532 0.665193 -0.969231
v -0.140465 0.706165 -0.969231
v 0.000000 0.720000 -0.969231
v 0.140464 0.706166 -0.969231
v 0.275531 0.665194 -0.969231
v 0.400010 0.598659 -0.969231
v 0.509116 0.509117 -0.969231
v 0.598658 0.400011 -0.969231
v 0.665193 0.275533 -0.969231
v 0.706165 0.140466 -0.969231
v 0.720000 0.000001 -0.969231
v 0.706166 -0.140465 -0.969231
v 0.665193 -0.275532 -0.969231
v 0.598658 -0.400010 -0.969231
v 0.509117 -0.509116 -0.969231
v 0.400011 -0.598658 -0.969231
v 0.275532 -0.665193 -0.969231
v 0.140465 -0.706165 -0.969231
v 0.000000 -0.720000 -0.969231
v -0.140465 -0.706165 -0.969231
v -0.275532 -0.665193 -0.969231
v -0.400010 -0.598658 -0.969231
vt 0.282066 0.387039
vt 0.141108 0.527996
vt 0.000151 0.387039
vt 0.141108 0.246082
vt 0.018703 0.134797
vt 0.129987 0.012391
vt 0.252393 0.123676
vt 0.411537 0.238600
vt 0.569842 0.371406
vt 0.433771 0.523111
vt 0.311901 0.202343
vt 0.298796 0.194886
vt 0.284354 0.189550
vt 0.268661 0.185756
vt 0.266137 0.195634
vt 0.261055 0.204131
vt 0.256906 0.212745
vt 0.250014 0.219695
vt 0.243518 0.227054
vt 0.236331 0.233733
vt 0.229145 0.240411
vt 0.220484 0.245032
vt 0.212335 0.250300
vt 0.203818 0.254940
vt 0.209989 0.269693
vt 0.218077 0.282480
vt 0.228742 0.293940
vt 0.407115 0.211193
vt 0.279800 0.119254
vt 0.440837 0.235510
vt 0.588234 0.356752
vt 0.251281 0.100307
vt 0.141116 0.000151
vt 0.585013 0.385013
vt 0.462548 0.521548
vt 0.112917 0.527996
vt 0.000151 0.415230
vt 0.017591 0.111428
vt 0.117747 0.001263
vt 0.999849 0.081906
vt 0.934917 0.192111
vt 0.824712 0.127178
vt 0.889645 0.016974
vt 0.701449 0.000151
vt 0.711799 0.236746
vt 0.588536 0.109718
vt 0.784420 0.531520
vt 0.588536 0.413075
vt 0.883310 0.340453
vt 0.883135 0.249084
vt 0.886176 0.233824
vt 0.890794 0.216559
vt 0.883728 0.215749
vt 0.875464 0.212669
vt 0.867079 0.210084
vt 0.858688 0.207683
vt 0.852461 0.201832
vt 0.845848 0.196392
vt 0.839625 0.190497
vt 0.833033 0.184986
vt 0.827908 0.178172
vt 0.822387 0.171630
vt 0.819545 0.163428
vt 0.804612 0.169472
vt 0.791284 0.176533
vt 0.779630 0.185408
vt 0.772504 0.195159
vt 0.767819 0.206584
vt 0.761842 0.221522
vt 0.773372 0.222416
vt 0.784734 0.224037
vt 0.796075 0.225068
vt 0.806960 0.226908
vt 0.818057 0.227994
vt 0.827031 0.234599
vt 0.836316 0.240795
vt 0.845289 0.247399
vt 0.852433 0.255707
vt 0.860069 0.263493
vt 0.868870 0.272468
vt 0.877543 0.260047
vt 0.272469 0.575219
vt 0.277455 0.563160
vt 0.284777 0.552847
vt 0.293937 0.543078
vt 0.304790 0.535835
vt 0.316846 0.530843
vt 0.329644 0.528298
vt 0.342692 0.528298
vt 0.355490 0.530844
vt 0.367545 0.535838
vt 0.378394 0.543087
vt 0.387620 0.552314
vt 0.394869 0.563163
vt 0.399863 0.575218
vt 0.402408 0.588016
vt 0.402408 0.601064
vt 0.399863 0.613862
vt 0.394869 0.625917
vt 0.387620 0.636766
vt 0.378394 0.645993
vt 0.367544 0.653242
vt 0.355489 0.658235
vt 0.342691 0.660781
vt 0.329643 0.660781
vt 0.316846 0.658235
vt 0.304791 0.653242
vt 0.293942 0.645993
vt 0.284715 0.636767
vt 0.277466 0.625918
vt 0.272472 0.613863
vt 0.269926 0.601065
vt 0.269925 0.588017
vt 0.240216 0.302138
vt 0.253237 0.307927
vt 0.268546 0.314697
vt 0.272669 0.305110
vt 0.277760 0.295494
vt 0.282524 0.285742
vt 0.289161 0.277138
vt 0.295237 0.268099
vt 0.301100 0.258921
vt 0.310238 0.253167
vt 0.319066 0.246881
vt 0.328287 0.241205
vt 0.337838 0.235780
vt 0.328990 0.222403
vt 0.321488 0.211423
vt 0.052344 0.683513
vt 0.052380 0.667869
vt 0.065428 0.667899
vt 0.065392 0.683543
vt 0.039296 0.683483
vt 0.039332 0.667839
vt 0.026248 0.683453
vt 0.026284 0.667808
vt 0.013199 0.683423
vt 0.013235 0.667778
vt 0.000151 0.683393
vt 0.000187 0.667748
vt 0.404648 0.683410
vt 0.404629 0.667765
vt 0.417677 0.667749
vt 0.417696 0.683394
vt 0.391600 0.683425
vt 0.391581 0.667781
vt 0.378551 0.683441
vt 0.378532 0.667796
vt 0.365503 0.683457
vt 0.365484 0.667812
vt 0.352455 0.683473
vt 0.352436 0.667828
vt 0.339406 0.683489
vt 0.339387 0.667844
vt 0.326358 0.683505
vt 0.326339 0.667860
vt 0.313310 0.683520
vt 0.313291 0.667876
vt 0.300262 0.683536
vt 0.300243 0.667892
vt 0.287213 0.683552
vt 0.287194 0.667907
vt 0.274165 0.683568
vt 0.274146 0.667923
vt 0.261117 0.683584
vt 0.261098 0.667939
vt 0.248068 0.683600
vt 0.248049 0.667955
vt 0.235020 0.683616
vt 0.235001 0.667971
vt 0.221972 0.683631
vt 0.221953 0.667987
vt 0.208924 0.683647
vt 0.208905 0.668002
vt 0.195875 0.683663
vt 0.195856 0.668018
vt 0.182827 0.683679
vt 0.182808 0.668034
vt 0.169779 0.683695
vt 0.169760 0.668050
vt 0.156730 0.683711
vt 0.156711 0.668066
vt 0.143682 0.683727
vt 0.143376 0.667807
vt 0.130634 0.683694
vt 0.130670 0.668049
vt 0.117586 0.683664
vt 0.117622 0.668019
vt 0.104537 0.683634
vt 0.104573 0.667989
vt 0.091489 0.683603
vt 0.091525 0.667959
vt 0.078441 0.683573
vt 0.078477 0.667929
vt 0.184061 0.530844
vt 0.196858 0.528298
vt 0.209907 0.528298
vt 0.222704 0.530844
vt 0.234759 0.535837
vt 0.245609 0.543086
vt 0.254835 0.552313
vt 0.262084 0.563162
vt 0.267078 0.575217
vt 0.269623 0.588015
vt 0.269623 0.601063
vt 0.267078 0.613861
vt 0.262084 0.625916
vt 0.254835 0.636765
vt 0.245609 0.645992
vt 0.234759 0.653241
vt 0.222704 0.658235
vt 0.209907 0.660780
vt 0.196858 0.660780
vt 0.184061 0.658235
vt 0.172006 0.653242
vt 0.161156 0.645992
vt 0.151930 0.636766
vt 0.144680 0.625917
vt 0.139685 0.613863
vt 0.137135 0.601066
vt 0.137498 0.587733
vt 0.139680 0.575213
vt 0.144679 0.563161
vt 0.151929 0.552312
vt 0.161156 0.543086
vt 0.172006 0.535837
vn -1.0000 0.0000 0.0000
vn 0.0000 1.0000 0.0000
vn 0.0000 -1.0000 0.0000
vn -0.0005 0.0002 -1.0000
vn 1.0000 0.0000 0.0000
vn 0.0000 0.0000 1.0000
vn 0.0003 -0.0001 -1.0000
vn 0.0000 0.0000 -1.0000
vn 0.6344 0.7730 0.0000
vn 0.4714 0.8819 -0.0000
vn 0.2903 0.9569 -0.0000
vn 0.0980 0.9952 -0.0000
vn -0.0980 0.9952 -0.0000
vn -0.2903 0.9569 -0.0000
vn -0.4714 0.8819 0.0000
vn -0.6344 0.7730 0.0000
vn -0.7730 0.6344 0.0000
vn -0.8819 0.4714 0.0000
vn -0.9569 0.2903 -0.0000
vn -0.9952 0.0980 -0.0000
vn -0.9952 -0.0980 -0.0000
vn -0.9569 -0.2903 0.0000
vn -0.8819 -0.4714 0.0000
vn -0.7730 -0.6344 0.0000
vn -0.6344 -0.7730 -0.0000
vn -0.4714 -0.8819 -0.0000
vn -0.2903 -0.9569 -0.0000
vn -0.0980 -0.9952 -0.0000
vn 0.0980 -0.9952 0.0000
vn 0.2903 -0.9569 0.0000
vn 0.4714 -0.8819 -0.0000
vn 0.6344 -0.7730 -0.0000
vn 0.7730 -0.6344 -0.0000
vn 0.8881 -0.4595 0.0112
vn 0.9535 -0.3011 0.0095
vn 0.9952 -0.0980 0.0000
vn 0.9952 0.0980 0.0000
vn 0.9569 0.2903 0.0000
vn 0.8819 0.4714 0.0000
vn 0.7730 0.6344 0.0000
vn -0.0002 0.0001 1.0000
usemtl None
s off
f 1/1/1 2/2/1 4/3/1 3/4/1
f 3/4/2 4/5/2 8/6/2 7/7/2
f 5/8/3 6/9/3 2/10/3 1/1/3
f 3/4/4 7/7/4 57/11/4 56/12/4 55/13/4 54/14/4 53/15/4 52/16/4 51/17/4 50/18/4 49/19/4 80/20/4 79/21/4 78/22/4 77/23/4 76/24/4 75/25/4 74/26/4 73/27/4
f 16/28/5 5/8/5 7/7/5 15/29/5
f 16/30/5 9/31/5 6/9/5 5/8/5
f 15/32/5 7/7/5 8/6/5 12/33/5
f 2/10/6 6/9/6 9/34/6 10/35/6
f 4/3/6 2/2/6 10/36/6 11/37/6
f 8/6/6 4/5/6 11/38/6 12/39/6
f 9/40/2 16/41/2 14/42/2 10/43/2
f 10/44/5 14/42/5 13/45/5 11/46/5
f 12/47/3 11/48/3 13/45/3 15/49/3
f 16/41/6 15/49/6 25/50/6 26/51/6 27/52/6 28/53/6 29/54/6 30/55/6 31/56/6 32/57/6 33/58/6 34/59/6 35/60/6 36/61/6 37/62/6 38/63/6 39/64/6 40/65/6 41/66/6 13/45/6 14/42/6
f 13/45/6 41/66/6 42/67/6 43/68/6 44/69/6 45/70/6 46/71/6 47/72/6 48/73/6 17/74/6 18/75/6 19/76/6 20/77/6 21/78/6 22/79/6 23/80/6 24/81/6 25/50/6 15/49/6
f 73/82/7 74/83/7 75/84/7 76/85/7 77/86/7 78/87/7 79/88/7 80/89/7 49/90/7 50/91/7 51/92/7 52/93/7 53/94/7 54/95/7 55/96/7 56/97/7 57/98/7 58/99/7 59/100/7 60/101/7 61/102/7 62/103/7 63/104/7 64/105/7 65/106/7 66/107/7 67/108/7 68/109/7 69/110/7 70/111/7 71/112/7 72/113/7
f 72/114/8 71/115/8 70/116/8 69/117/8 68/118/8 67/119/8 66/120/8 65/121/8 64/122/8 63/123/8 62/124/8 61/125/8 60/126/8 59/127/8 58/128/8 57/11/8 7/7/8 5/8/8 1/1/8 3/4/8 73/27/8
f 36/129/9 112/130/9 81/131/9 37/132/9
f 35/133/10 111/134/10 112/130/10 36/129/10
f 34/135/11 110/136/11 111/134/11 35/133/11
f 33/137/12 109/138/12 110/136/12 34/135/12
f 32/139/13 108/140/13 109/138/13 33/137/13
f 31/141/14 107/142/14 108/143/14 32/144/14
f 30/145/15 106/146/15 107/142/15 31/141/15
f 29/147/16 105/148/16 106/146/16 30/145/16
f 28/149/17 104/150/17 105/148/17 29/147/17
f 27/151/18 103/152/18 104/150/18 28/149/18
f 26/153/19 102/154/19 103/152/19 27/151/19
f 25/155/20 101/156/20 102/154/20 26/153/20
f 24/157/21 100/158/21 101/156/21 25/155/21
f 23/159/22 99/160/22 100/158/22 24/157/22
f 22/161/23 98/162/23 99/160/23 23/159/23
f 21/163/24 97/164/24 98/162/24 22/161/24
f 20/165/25 96/166/25 97/164/25 21/163/25
f 19/167/26 95/168/26 96/166/26 20/165/26
f 18/169/27 94/170/27 95/168/27 19/167/27
f 17/171/28 93/172/28 94/170/28 18/169/28
f 48/173/29 92/174/29 93/172/29 17/171/29
f 47/175/30 91/176/30 92/174/30 48/173/30
f 46/177/31 90/178/31 91/176/31 47/175/31
f 45/179/32 89/180/32 90/178/32 46/177/32
f 44/181/33 88/182/33 89/180/33 45/179/33
f 43/183/34 87/184/34 88/182/34 44/181/34
f 42/185/35 86/186/35 87/184/35 43/183/35
f 41/187/36 85/188/36 86/186/36 42/185/36
f 40/189/37 84/190/37 85/188/37 41/187/37
f 39/191/38 83/192/38 84/190/38 40/189/38
f 38/193/39 82/194/39 83/192/39 39/191/39
f 37/132/40 81/131/40 82/194/40 38/193/40
f 81/195/41 112/196/41 111/197/41 110/198/41 109/199/41 108/200/41 107/201/41 106/202/41 105/203/41 104/204/41 103/205/41 102/206/41 101/207/41 100/208/41 99/209/41 98/210/41 97/211/41 96/212/41 95/213/41 94/214/41 93/215/41 92/216/41 91/217/41 90/218/41 89/219/41 88/220/41 87/221/41 86/222/41 85/223/41 84/224/41 83/225/41 82/226/41
l 3 13
l 1 14
