# Blender v2.79 (sub 0) OBJ File: 'startCorner.blend'
# www.blender.org
mtllib startCorner.mtl
o Cube
v 1.000000 1.000000 -1.000000
v -1.000000 -1.000000 -1.000000
v -1.000000 1.000000 1.000000
v -0.487835 -0.491578 -0.491462
v 0.519182 -0.583833 -0.486542
v -0.453097 0.452446 -0.518168
v 0.455068 0.558891 -0.508040
v -0.550615 0.039622 -0.535128
v -0.049965 -0.525771 -0.446396
v 0.462029 0.010818 -0.559675
v -0.008467 0.506943 -0.499005
v 0.015187 -0.016644 -0.447796
v -0.500949 -0.235449 -0.507327
v 0.272491 -0.588845 -0.511843
v 0.506529 0.247445 -0.510664
v -0.251364 0.501246 -0.501769
v -0.488951 0.239205 -0.499092
v -0.264767 -0.465032 -0.520333
v 0.506286 -0.297269 -0.560469
v 0.254316 0.441865 -0.539683
v 0.035560 0.233255 -0.487745
v -0.042873 -0.231795 -0.481165
v -0.290423 -0.044492 -0.490686
v 0.278855 0.034129 -0.487743
v 0.186219 -0.227796 -0.568334
v -0.258672 -0.239270 -0.470620
v -0.226922 0.243309 -0.531755
v 0.314776 0.177371 -0.485040
v 0.744991 -0.507009 -0.487736
v 0.752588 0.499443 -0.494189
v 0.693906 -0.026937 -0.452056
v 0.740580 0.244862 -0.473858
v 0.787503 -0.269584 -0.510883
v 1.000000 -0.500000 -0.500000
v 1.000000 0.500000 -0.500000
v 1.000000 0.000000 -0.500000
v 1.000000 0.250000 -0.500000
v 1.000000 -0.250000 -0.500000
v -0.500407 0.747615 -0.498457
v 0.463356 0.704470 -0.508759
v 0.035756 0.762442 -0.564368
v -0.198829 0.798825 -0.468485
v 0.243935 0.735263 -0.525822
v 0.761063 0.780480 -0.483253
v 1.000000 0.750000 -0.500000
v -0.500000 1.000000 -0.500000
v 0.500000 1.000000 -0.500000
v 0.000000 1.000000 -0.500000
v -0.250000 1.000000 -0.500000
v 0.250000 1.000000 -0.500000
v 0.750000 1.000000 -0.500000
v 1.000000 1.000000 -0.500000
v -0.494375 -0.509900 -0.260457
v 0.449499 -0.508891 -0.270149
v -0.504539 0.464775 -0.274808
v -0.500134 0.000019 -0.249976
v 0.055610 -0.442446 -0.200722
v -0.499171 -0.251223 -0.250000
v 0.280710 -0.538207 -0.319704
v -0.436818 0.295595 -0.237617
v -0.189617 -0.539193 -0.209056
v 0.781799 -0.507751 -0.210609
v 1.000000 -0.500000 -0.250000
v -0.549152 0.778012 -0.252958
v -0.500000 1.000000 -0.250000
v -0.536228 -0.521713 0.049452
v 0.500614 -0.499043 0.022222
v -0.436580 0.494489 0.028037
v -0.465592 -0.051178 0.020091
v -0.011390 -0.479783 0.064107
v -0.461745 -0.294349 -0.054507
v 0.309091 -0.506954 -0.009649
v -0.498281 0.336648 -0.006250
v -0.255201 -0.561197 0.057983
v 0.752827 -0.512899 -0.000613
v 1.000000 -0.500000 0.000000
v -0.546273 0.766968 0.006849
v -0.500000 1.000000 0.000000
v -0.502971 -0.498524 0.248815
v 0.484989 -0.529409 0.202004
v -0.501677 0.450162 0.218949
v -0.441399 0.029595 0.319817
v 0.052474 -0.499391 0.237348
v -0.467985 -0.245742 0.186029
v 0.316512 -0.530782 0.269565
v -0.542224 0.283627 0.240579
v -0.245380 -0.482350 0.242416
v 0.781448 -0.449996 0.234349
v 1.000000 -0.500000 0.250000
v -0.485129 0.783454 0.277888
v -0.500000 1.000000 0.250000
v -0.454899 -0.444242 0.496652
v 0.538616 -0.461795 0.467375
v -0.498531 0.446948 0.430876
v -0.466665 0.017848 0.504318
v 0.009002 -0.535409 0.509448
v -0.530384 -0.260278 0.527325
v 0.244432 -0.427411 0.498371
v -0.549709 0.252657 0.498961
v -0.280005 -0.464626 0.571177
v 0.708802 -0.533933 0.511411
v 1.000000 -0.500000 0.500000
v -0.491528 0.789234 0.518225
v -0.500000 1.000000 0.500000
v -0.484062 -0.568772 0.720351
v 0.504956 -0.502197 0.757158
v -0.414206 0.538361 0.772936
v -0.490255 0.004905 0.752954
v -0.036004 -0.530541 0.720369
v -0.582603 -0.291605 0.763402
v 0.252625 -0.469837 0.714783
v -0.434967 0.175084 0.761428
v -0.238963 -0.522983 0.763204
v 0.786581 -0.468892 0.759095
v 1.000000 -0.500000 0.750000
v -0.512019 0.741851 0.756302
v -0.500000 1.000000 0.750000
v -0.478292 -0.415280 0.987833
v 0.503360 -0.483449 1.006831
v -0.521997 0.501016 0.985354
v -0.497702 0.026526 0.997111
v -0.000042 -0.528300 1.008941
v -0.495891 -0.318350 0.989596
v 0.225630 -0.529875 0.989960
v -0.518002 0.223370 1.042619
v -0.241403 -0.483776 0.908763
v 0.725677 -0.548743 1.034233
v 1.000000 -0.500000 1.000000
v -0.447429 0.709715 1.039369
v -0.500000 1.000000 1.000000
v 1.000000 -0.750000 -0.500000
v 1.000000 -0.750000 -0.250000
v 1.000000 -0.750000 0.000000
v 1.000000 -0.750000 0.250000
v 1.000000 -0.750000 0.500000
v 1.000000 -0.750000 0.750000
v 1.000000 -0.750000 1.000000
v 1.000000 -1.000000 -0.500000
v 1.000000 -1.000000 -0.250000
v 1.000000 -1.000000 0.000000
v 1.000000 -1.000000 0.250000
v 1.000000 -1.000000 0.500000
v 1.000000 -1.000000 0.750000
v -0.750000 1.000000 -0.500000
v -0.750000 1.000000 -0.250000
v -0.750000 1.000000 0.000000
v -0.750000 1.000000 0.250000
v -0.750000 1.000000 0.500000
v -0.750000 1.000000 0.750000
v -1.000000 1.000000 -0.500000
v -1.000000 1.000000 -0.250000
v -1.000000 1.000000 0.000000
v -1.000000 1.000000 0.250000
v -1.000000 1.000000 0.500000
v -1.000000 1.000000 0.750000
v -0.517166 -0.762014 1.005951
v 0.554076 -0.724172 0.983222
v -0.024127 -0.747510 0.992986
v 0.253239 -0.704407 0.978835
v -0.269023 -0.785361 1.052693
v 0.747135 -0.751393 1.002916
v -0.500000 -1.000000 1.000000
v 0.500000 -1.000000 1.000000
v 0.000000 -1.000000 1.000000
v 0.250000 -1.000000 1.000000
v -0.250000 -1.000000 1.000000
v 0.750000 -1.000000 1.000000
v 1.000000 -1.000000 1.000000
v -0.755828 -0.499089 0.982589
v -0.782364 0.473075 0.962594
v -0.692967 -0.015878 0.975137
v -0.683053 -0.219163 1.020833
v -0.761120 0.251382 1.006719
v -0.778948 0.714707 0.945006
v -0.750000 1.000000 1.000000
v -0.742315 -0.785463 1.016435
v -0.750000 -1.000000 1.000000
v -1.000000 -0.500000 1.000000
v -1.000000 0.500000 1.000000
v -1.000000 0.000000 1.000000
v -1.000000 -0.250000 1.000000
v -1.000000 0.250000 1.000000
v -1.000000 0.750000 1.000000
v -1.000000 -0.750000 1.000000
v -1.000000 -1.000000 1.000000
v 1.000000 -0.500000 -0.750000
v 1.000000 0.500000 -0.750000
v 1.000000 0.000000 -0.750000
v 1.000000 0.250000 -0.750000
v 1.000000 -0.250000 -0.750000
v 1.000000 0.750000 -0.750000
v -0.500000 1.000000 -0.750000
v 0.500000 1.000000 -0.750000
v 0.000000 1.000000 -0.750000
v -0.250000 1.000000 -0.750000
v 0.250000 1.000000 -0.750000
v 0.750000 1.000000 -0.750000
v 1.000000 1.000000 -0.750000
v 1.000000 -0.750000 -0.750000
v 1.000000 -1.000000 -0.750000
v -0.750000 1.000000 -0.750000
v -1.000000 1.000000 -0.750000
v 1.000000 -0.500000 -1.000000
v 1.000000 0.500000 -1.000000
v 1.000000 0.000000 -1.000000
v 1.000000 0.250000 -1.000000
v 1.000000 -0.250000 -1.000000
v 1.000000 0.750000 -1.000000
v -0.500000 1.000000 -1.000000
v 0.500000 1.000000 -1.000000
v 0.000000 1.000000 -1.000000
v -0.250000 1.000000 -1.000000
v 0.250000 1.000000 -1.000000
v 0.750000 1.000000 -1.000000
v 1.000000 -0.750000 -1.000000
v 1.000000 -1.000000 -1.000000
v -0.750000 1.000000 -1.000000
v -1.000000 1.000000 -1.000000
vt 0.475227 0.999885
vt 0.237671 0.999885
vt 0.237671 0.762329
vt 0.475227 0.762329
vt 0.000115 0.999885
vt 0.000115 0.762329
vt 0.237671 0.524773
vt 0.475227 0.524773
vt 0.287441 0.171677
vt 0.276462 0.149780
vt 0.306789 0.127081
vt 0.314348 0.153731
vt 0.338211 0.211343
vt 0.315330 0.189889
vt 0.342227 0.170528
vt 0.362380 0.191878
vt 0.300171 0.253023
vt 0.281946 0.234458
vt 0.295985 0.212056
vt 0.318470 0.239225
vt 0.263207 0.214001
vt 0.232956 0.194519
vt 0.260771 0.173841
vt 0.279179 0.186433
vt 0.256071 0.261379
vt 0.230104 0.232877
vt 0.211579 0.217384
vt 0.321586 0.272786
vt 0.343072 0.253121
vt 0.299668 0.294493
vt 0.282337 0.273603
vt 0.359060 0.235238
vt 0.375662 0.213894
vt 0.194130 0.195859
vt 0.210249 0.170559
vt 0.237765 0.156227
vt 0.255956 0.130097
vt 0.276249 0.107307
vt 0.213552 0.129549
vt 0.234179 0.108063
vt 0.254989 0.086568
vt 0.172523 0.173241
vt 0.193147 0.151348
vt 0.339571 0.129869
vt 0.359440 0.144429
vt 0.383099 0.161976
vt 0.404505 0.191499
vt 0.318251 0.113997
vt 0.299048 0.082416
vt 0.275880 0.065006
vt 0.318465 0.064413
vt 0.339989 0.085484
vt 0.383017 0.127866
vt 0.404583 0.149018
vt 0.425918 0.170273
vt 0.296855 0.043403
vt 0.361482 0.106580
vt 0.166387 0.215636
vt 0.151638 0.193965
vt 0.249176 0.295344
vt 0.225396 0.276280
vt 0.362302 0.276708
vt 0.340702 0.296530
vt 0.427731 0.210063
vt 0.398336 0.234492
vt 0.386614 0.252545
vt 0.447003 0.191382
vt 0.215499 0.247878
vt 0.197805 0.238559
vt 0.317085 0.316704
vt 0.280971 0.315623
vt 0.151091 0.235578
vt 0.130339 0.214701
vt 0.426051 0.256873
vt 0.410148 0.268202
vt 0.234028 0.324137
vt 0.210194 0.304771
vt 0.448577 0.232700
vt 0.353053 0.317220
vt 0.340915 0.346016
vt 0.259075 0.346530
vt 0.380120 0.303608
vt 0.467863 0.212520
vt 0.188603 0.271463
vt 0.170139 0.258297
vt 0.164746 0.293850
vt 0.156511 0.274533
vt 0.128139 0.252830
vt 0.189656 0.314723
vt 0.427197 0.293284
vt 0.411576 0.322588
vt 0.108749 0.235070
vt 0.439341 0.276844
vt 0.216335 0.340275
vt 0.472653 0.254196
vt 0.377060 0.334203
vt 0.360233 0.361060
vt 0.239477 0.361523
vt 0.488477 0.233724
vt 0.493010 0.273808
vt 0.457047 0.294927
vt 0.405005 0.366290
vt 0.384657 0.380587
vt 0.215221 0.380509
vt 0.192838 0.374032
vt 0.426905 0.338678
vt 0.509258 0.254826
vt 0.150146 0.320234
vt 0.128853 0.292372
vt 0.109476 0.281629
vt 0.170460 0.343418
vt 0.445856 0.316518
vt 0.087215 0.255617
vt 0.462851 0.346179
vt 0.447881 0.361310
vt 0.081795 0.295010
vt 0.065413 0.275771
vt 0.493437 0.316462
vt 0.171025 0.390144
vt 0.155625 0.366374
vt 0.509471 0.296052
vt 0.423025 0.388409
vt 0.395830 0.410445
vt 0.199451 0.406555
vt 0.529681 0.275764
vt 0.130755 0.338300
vt 0.105391 0.319370
vt 0.549440 0.297606
vt 0.526273 0.319333
vt 0.106476 0.365502
vt 0.084516 0.339558
vt 0.062698 0.323806
vt 0.125217 0.387232
vt 0.490291 0.365470
vt 0.471679 0.379471
vt 0.043780 0.295967
vt 0.511868 0.339184
vt 0.156242 0.406524
vt 0.441630 0.411495
vt 0.432509 0.419716
vt 0.176470 0.435446
vt 0.023596 0.274308
vt 0.045243 0.254121
vt 0.131050 0.172824
vt 0.152043 0.152372
vt 0.088414 0.213608
vt 0.109839 0.193255
vt 0.066907 0.233890
vt 0.025065 0.232494
vt 0.046683 0.212330
vt 0.068163 0.192168
vt 0.089515 0.171963
vt 0.110677 0.151705
vt 0.131688 0.131376
vt 0.003424 0.252667
vt 0.550991 0.255597
vt 0.571379 0.277314
vt 0.509785 0.212986
vt 0.530464 0.234252
vt 0.468148 0.170485
vt 0.489024 0.191722
vt 0.447181 0.149250
vt 0.510299 0.170889
vt 0.531107 0.192225
vt 0.468458 0.128305
vt 0.489404 0.149582
vt 0.572521 0.235073
vt 0.593103 0.256774
vt 0.551847 0.213594
vt 0.042644 0.338814
vt 0.022150 0.316494
vt 0.141237 0.459579
vt 0.121685 0.436239
vt 0.107314 0.408490
vt 0.087727 0.378642
vt 0.060514 0.353895
vt 0.020397 0.358810
vt 0.000115 0.336776
vt 0.115732 0.473457
vt 0.098878 0.449045
vt 0.080982 0.425834
vt 0.040743 0.381054
vt 0.061291 0.403151
vt 0.152978 0.484781
vt 0.131371 0.498981
vt 0.551595 0.343905
vt 0.532841 0.363955
vt 0.183650 0.468975
vt 0.513055 0.381714
vt 0.485464 0.399564
vt 0.467785 0.416949
vt 0.571479 0.317096
vt 0.452189 0.449090
vt 0.593098 0.336498
vt 0.573697 0.358117
vt 0.553821 0.379527
vt 0.533672 0.400919
vt 0.513625 0.422856
vt 0.198191 0.494263
vt 0.172421 0.509209
vt 0.494009 0.445140
vt 0.474640 0.468140
vt 0.146802 0.524543
vt 0.254282 0.044089
vt 0.275217 0.022448
vt 0.339534 0.042825
vt 0.361130 0.063932
vt 0.317909 0.021759
vt 0.233403 0.065713
vt 0.425781 0.127580
vt 0.447235 0.148851
vt 0.212605 0.087333
vt 0.382704 0.085098
vt 0.404279 0.106357
vt 0.505151 0.524773
vt 0.534846 0.524773
vt 0.534846 0.554468
vt 0.505151 0.554468
vt 0.171317 0.130756
vt 0.191918 0.108991
vt 0.594465 0.584162
vt 0.564771 0.584162
vt 0.564771 0.554468
vt 0.594465 0.554468
vt 0.535076 0.584162
vt 0.535076 0.554468
vt 0.475457 0.524773
vt 0.475457 0.554468
vt 0.150674 0.152583
vt 0.338992 0.000115
vt 0.360636 0.021198
vt 0.128861 0.131924
vt 0.149520 0.110111
vt 0.232628 0.023185
vt 0.253556 0.001518
vt 0.211741 0.044866
vt 0.564771 0.524773
vt 0.594465 0.524773
vt 0.447046 0.106077
vt 0.468533 0.127365
vt 0.535076 0.524773
vt 0.403921 0.063522
vt 0.425522 0.084802
vt 0.534846 0.584162
vt 0.505151 0.584162
vt 0.190918 0.066573
vt 0.475457 0.584162
vt 0.382283 0.042324
vt 0.170183 0.088321
vn 0.0000 0.0000 -1.0000
vn -0.0000 -1.0000 -0.0000
vn -1.0000 0.0000 0.0000
vn -0.0532 0.0796 0.9954
vn -0.0925 -0.0469 0.9946
vn -0.0600 -0.0285 0.9978
vn 0.0978 -0.1488 0.9840
vn 0.2695 -0.3034 0.9139
vn 0.2794 0.1655 0.9458
vn -0.0355 0.1921 0.9807
vn -0.1462 0.0752 0.9864
vn -0.0134 -0.0703 0.9974
vn -0.1486 -0.0247 0.9886
vn 0.0378 -0.0240 0.9990
vn -0.0202 0.0155 0.9997
vn -0.1542 0.1707 0.9732
vn 0.1003 0.1401 0.9850
vn 0.0690 0.0843 0.9940
vn 0.2691 -0.1856 0.9451
vn -0.1316 0.1878 0.9734
vn -0.2959 0.0019 0.9552
vn -0.2916 -0.1748 0.9404
vn -0.0920 0.0247 0.9955
vn 0.1282 0.0300 0.9913
vn 0.0624 0.0387 0.9973
vn 0.0003 0.0474 0.9989
vn 0.0801 -0.1032 0.9914
vn 0.0225 0.0920 0.9955
vn -0.0740 -0.0882 0.9934
vn -0.1090 -0.0303 0.9936
vn -0.0654 -0.0213 0.9976
vn 0.1928 0.0232 0.9810
vn 0.0450 -0.0213 0.9988
vn -0.0490 0.0179 0.9986
vn 0.1914 -0.0355 0.9809
vn -0.0602 0.0659 0.9960
vn 0.0365 0.0365 0.9987
vn -0.0401 -0.0585 0.9975
vn -0.0931 -0.1813 0.9790
vn -0.0308 0.9995 0.0036
vn -0.0797 0.9968 0.0095
vn 0.9921 0.0909 -0.0863
vn 0.9730 0.1342 0.1877
vn 0.9966 0.0812 -0.0124
vn 0.9892 -0.1037 0.1037
vn 0.1602 0.9315 -0.3266
vn -0.1207 0.9804 -0.1554
vn 0.9993 0.0349 0.0122
vn -0.0021 0.9857 0.1684
vn 0.9588 -0.2251 -0.1731
vn -0.0253 0.9545 -0.2972
vn -0.0436 0.9990 0.0084
vn 0.9997 0.0183 -0.0146
vn -0.3427 0.9392 0.0194
vn 0.9589 0.2528 -0.1291
vn 0.9897 -0.1432 -0.0069
vn 0.1083 0.9910 0.0783
vn 0.9887 0.0317 -0.1464
vn 0.9786 -0.2053 -0.0100
vn -0.0901 0.9944 -0.0560
vn 0.0224 0.9997 -0.0103
vn 0.2284 0.9732 0.0256
vn 0.9977 -0.0436 0.0527
vn -0.0140 0.9930 0.1170
vn -0.1170 0.9904 -0.0740
vn 0.1049 0.9914 0.0786
vn 0.9779 0.2075 0.0248
vn 0.0833 0.9876 -0.1330
vn 0.9385 -0.3023 0.1666
vn -0.1166 0.9834 -0.1389
vn 0.9884 0.1509 0.0176
vn 0.9730 -0.2296 -0.0223
vn 0.0428 0.9643 -0.2612
vn 0.9991 -0.0337 -0.0251
vn 0.9904 -0.0780 -0.1138
vn 0.9993 -0.0364 0.0074
vn 0.9954 0.0936 0.0179
vn 0.0293 0.9918 -0.1245
vn 0.9701 -0.1888 0.1523
vn 0.9984 0.0559 0.0124
vn -0.0022 0.9450 -0.3271
vn -0.0204 0.9994 0.0294
vn -0.1428 0.9760 -0.1642
vn 0.9249 0.3658 0.1037
vn 0.0298 0.9865 0.1612
vn 0.9686 -0.2485 -0.0091
vn 0.1534 0.9869 0.0500
vn 0.9842 0.0687 -0.1634
vn -0.0107 0.9917 -0.1279
vn 0.9398 -0.1523 -0.3060
vn 0.1830 0.9743 0.1311
vn 0.9765 0.1782 -0.1210
vn 0.9154 0.3031 0.2648
vn -0.1666 0.9008 0.4010
vn 0.9591 -0.2531 0.1269
vn 0.9991 -0.0054 0.0414
vn 0.1161 0.9793 0.1661
vn 0.0909 0.9944 -0.0530
vn -0.3043 0.9509 0.0574
vn 0.9912 0.0636 -0.1163
vn -0.0350 0.9965 0.0765
vn 0.0558 0.9910 0.1220
vn -0.1087 0.9887 0.1031
vn 0.9756 -0.1201 0.1840
vn -0.0226 0.9888 0.1477
vn 0.9327 0.0013 0.3606
vn 0.1290 0.9862 -0.1041
vn 0.9945 0.0476 0.0934
vn 0.9152 0.3143 -0.2522
vn 0.0109 0.9061 -0.4228
vn 0.9763 -0.1386 -0.1660
vn 1.0000 0.0000 0.0000
vn 0.0000 1.0000 0.0000
vn 0.0763 -0.0652 0.9949
vn 0.1081 0.2306 0.9670
vn 0.0711 -0.0678 0.9952
vn -0.0771 0.2451 0.9664
vn -0.0325 -0.0894 0.9955
vn -0.1432 -0.1446 0.9791
vn 0.0058 -0.0058 1.0000
vn -0.0989 -0.1356 0.9858
vn 0.1258 -0.0850 0.9884
vn -0.0425 0.0305 0.9986
vn 0.0225 0.0522 0.9984
vn -0.0055 0.0668 0.9978
vn 0.0244 -0.0489 0.9985
vn -0.1922 -0.0460 0.9803
vn -0.0071 0.0821 0.9966
vn -0.1135 0.1922 0.9748
vn 0.0346 0.0702 0.9969
vn -0.1226 -0.1853 0.9750
vn -0.1604 -0.0334 0.9865
vn 0.0518 -0.1129 0.9923
vn 0.1074 -0.1074 0.9884
vn 0.0721 0.0961 0.9928
vn 0.0317 -0.0568 0.9979
vn 0.0063 0.0631 0.9980
vn 0.2105 0.0335 0.9770
vn 0.0040 0.1004 0.9949
vn -0.0020 -0.0717 0.9974
vn -0.0348 -0.0348 0.9988
usemtl Material
s off
f 1/1/1 216/2/1 2/3/1 218/4/1
f 216/2/2 168/5/2 185/6/2 2/3/2
f 2/3/3 185/7/3 3/8/3 218/4/3
f 28/9/4 15/10/4 7/11/4 20/12/4
f 27/13/5 21/14/5 11/15/5 16/16/5
f 26/17/6 22/18/6 12/19/6 23/20/6
f 25/21/7 19/22/7 10/23/7 24/24/7
f 22/18/8 25/21/8 24/24/8 12/19/8
f 9/25/9 14/26/9 25/21/9 22/18/9
f 14/26/10 5/27/10 19/22/10 25/21/10
f 13/28/11 26/17/11 23/20/11 8/29/11
f 4/30/12 18/31/12 26/17/12 13/28/12
f 18/31/13 9/25/13 22/18/13 26/17/13
f 17/32/14 27/13/14 16/16/14 6/33/14
f 8/29/15 23/20/15 27/13/15 17/32/15
f 23/20/16 12/19/16 21/14/16 27/13/16
f 21/14/17 28/9/17 20/12/17 11/15/17
f 12/19/18 24/24/18 28/9/18 21/14/18
f 24/24/19 10/23/19 15/10/19 28/9/19
f 19/22/20 5/27/20 29/34/20 33/35/20
f 15/10/21 10/23/21 31/36/21 32/37/21
f 10/23/22 19/22/22 33/35/22 31/36/22
f 7/11/23 15/10/23 32/37/23 30/38/23
f 32/37/24 31/36/24 36/39/24 37/40/24
f 30/38/25 32/37/25 37/40/25 35/41/25
f 33/35/26 29/34/26 34/42/26 38/43/26
f 31/36/27 33/35/27 38/43/27 36/39/27
f 11/15/28 20/12/28 43/44/28 41/45/28
f 6/33/29 16/16/29 42/46/29 39/47/29
f 20/12/30 7/11/30 40/48/30 43/44/30
f 7/11/31 30/38/31 44/49/31 40/48/31
f 16/16/32 11/15/32 41/45/32 42/46/32
f 30/38/33 35/41/33 45/50/33 44/49/33
f 40/48/34 44/49/34 51/51/34 47/52/34
f 42/46/35 41/45/35 48/53/35 49/54/35
f 39/47/36 42/46/36 49/54/36 46/55/36
f 44/49/37 45/50/37 52/56/37 51/51/37
f 43/44/38 40/48/38 47/52/38 50/57/38
f 41/45/39 43/44/39 50/57/39 48/53/39
f 34/42/40 29/34/40 62/58/40 63/59/40
f 9/25/41 18/31/41 61/60/41 57/61/41
f 13/28/42 8/29/42 56/62/42 58/63/42
f 6/33/43 39/47/43 64/64/43 55/65/43
f 17/32/44 6/33/44 55/65/44 60/66/44
f 39/47/45 46/55/45 65/67/45 64/64/45
f 14/26/46 9/25/46 57/61/46 59/68/46
f 29/34/47 5/27/47 54/69/47 62/58/47
f 4/30/48 13/28/48 58/63/48 53/70/48
f 18/31/49 4/30/49 53/71/49 61/60/49
f 8/29/50 17/32/50 60/66/50 56/62/50
f 5/27/51 14/26/51 59/68/51 54/69/51
f 63/59/52 62/58/52 75/72/52 76/73/52
f 60/66/53 55/65/53 68/74/53 73/75/53
f 57/61/54 61/60/54 74/76/54 70/77/54
f 55/65/55 64/64/55 77/78/55 68/74/55
f 53/70/56 58/63/56 71/79/56 66/80/56
f 61/60/57 53/71/57 66/81/57 74/76/57
f 58/63/58 56/62/58 69/82/58 71/79/58
f 64/64/59 65/67/59 78/83/59 77/78/59
f 54/69/60 59/68/60 72/84/60 67/85/60
f 62/58/61 54/69/61 67/85/61 75/72/61
f 59/68/62 57/61/62 70/77/62 72/84/62
f 56/62/63 60/66/63 73/75/63 69/82/63
f 67/85/64 72/84/64 85/86/64 80/87/64
f 75/72/65 67/85/65 80/87/65 88/88/65
f 72/84/66 70/77/66 83/89/66 85/86/66
f 69/82/67 73/75/67 86/90/67 82/91/67
f 76/73/68 75/72/68 88/88/68 89/92/68
f 73/75/69 68/74/69 81/93/69 86/90/69
f 70/77/70 74/76/70 87/94/70 83/89/70
f 68/74/71 77/78/71 90/95/71 81/93/71
f 66/80/72 71/79/72 84/96/72 79/97/72
f 74/76/73 66/81/73 79/98/73 87/94/73
f 71/79/74 69/82/74 82/91/74 84/96/74
f 77/78/75 78/83/75 91/99/75 90/95/75
f 81/93/76 90/95/76 103/100/76 94/101/76
f 79/97/77 84/96/77 97/102/77 92/103/77
f 87/94/78 79/98/78 92/104/78 100/105/78
f 84/96/79 82/91/79 95/106/79 97/102/79
f 90/95/80 91/99/80 104/107/80 103/100/80
f 80/87/81 85/86/81 98/108/81 93/109/81
f 88/88/82 80/87/82 93/109/82 101/110/82
f 85/86/83 83/89/83 96/111/83 98/108/83
f 82/91/84 86/90/84 99/112/84 95/106/84
f 89/92/85 88/88/85 101/110/85 102/113/85
f 86/90/86 81/93/86 94/101/86 99/112/86
f 83/89/87 87/94/87 100/105/87 96/111/87
f 95/106/88 99/112/88 112/114/88 108/115/88
f 102/113/89 101/110/89 114/116/89 115/117/89
f 99/112/90 94/101/90 107/118/90 112/114/90
f 96/111/91 100/105/91 113/119/91 109/120/91
f 94/101/92 103/100/92 116/121/92 107/118/92
f 92/103/93 97/102/93 110/122/93 105/123/93
f 100/105/94 92/104/94 105/124/94 113/119/94
f 97/102/95 95/106/95 108/115/95 110/122/95
f 103/100/96 104/107/96 117/125/96 116/121/96
f 93/109/97 98/108/97 111/126/97 106/127/97
f 101/110/98 93/109/98 106/127/98 114/116/98
f 98/108/99 96/111/99 109/120/99 111/126/99
f 116/121/100 117/125/100 130/128/100 129/129/100
f 106/127/101 111/126/101 124/130/101 119/131/101
f 114/116/102 106/127/102 119/131/102 127/132/102
f 111/126/103 109/120/103 122/133/103 124/130/103
f 108/115/104 112/114/104 125/134/104 121/135/104
f 115/117/105 114/116/105 127/132/105 128/136/105
f 112/114/106 107/118/106 120/137/106 125/134/106
f 109/120/107 113/119/107 126/138/107 122/133/107
f 107/118/108 116/121/108 129/129/108 120/137/108
f 105/123/109 110/122/109 123/139/109 118/140/109
f 113/119/110 105/124/110 118/141/110 126/138/110
f 110/122/111 108/115/111 121/135/111 123/139/111
f 115/117/112 128/136/112 137/142/112 136/143/112
f 34/42/112 63/59/112 132/144/112 131/145/112
f 76/73/112 89/92/112 134/146/112 133/147/112
f 89/92/112 102/113/112 135/148/112 134/146/112
f 102/113/112 115/117/112 136/143/112 135/148/112
f 63/59/112 76/73/112 133/147/112 132/144/112
f 135/148/112 136/143/112 143/149/112 142/150/112
f 133/147/112 134/146/112 141/151/112 140/152/112
f 131/145/112 132/144/112 139/153/112 138/154/112
f 136/143/112 137/142/112 168/155/112 143/149/112
f 134/146/112 135/148/112 142/150/112 141/151/112
f 132/144/112 133/147/112 140/152/112 139/153/112
f 130/128/113 117/125/113 149/156/113 175/157/113
f 104/107/113 91/99/113 147/158/113 148/159/113
f 78/83/113 65/67/113 145/160/113 146/161/113
f 117/125/113 104/107/113 148/159/113 149/156/113
f 65/67/113 46/55/113 144/162/113 145/160/113
f 91/99/113 78/83/113 146/161/113 147/158/113
f 147/158/113 146/161/113 152/163/113 153/164/113
f 145/160/113 144/162/113 150/165/113 151/166/113
f 175/157/113 149/156/113 155/167/113 3/168/113
f 148/159/113 147/158/113 153/164/113 154/169/113
f 146/161/113 145/160/113 151/166/113 152/163/113
f 149/156/113 148/159/113 154/169/113 155/167/113
f 128/136/114 127/132/114 161/170/114 137/171/114
f 126/138/115 118/141/115 156/172/115 160/173/115
f 124/130/116 122/133/116 158/174/116 159/175/116
f 122/133/117 126/138/117 160/173/117 158/174/117
f 119/131/118 124/130/118 159/175/118 157/176/118
f 127/132/119 119/131/119 157/176/119 161/170/119
f 137/171/120 161/170/120 167/177/120 168/178/120
f 160/173/121 156/172/121 162/179/121 166/180/121
f 158/174/122 160/173/122 166/180/122 164/181/122
f 161/170/123 157/176/123 163/182/123 167/177/123
f 159/175/124 158/174/124 164/181/124 165/183/124
f 157/176/125 159/175/125 165/183/125 163/182/125
f 162/179/126 156/172/126 176/184/126 177/185/126
f 120/137/127 129/129/127 174/186/127 170/187/127
f 156/172/128 118/141/128 169/188/128 176/184/128
f 125/134/129 120/137/129 170/187/129 173/189/129
f 123/139/130 121/135/130 171/190/130 172/191/130
f 121/135/131 125/134/131 173/189/131 171/190/131
f 129/129/132 130/128/132 175/192/132 174/186/132
f 118/140/133 123/139/133 172/191/133 169/193/133
f 174/186/134 175/192/134 3/194/134 183/195/134
f 173/189/135 170/187/135 179/196/135 182/197/135
f 171/190/136 173/189/136 182/197/136 180/198/136
f 176/184/137 169/188/137 178/199/137 184/200/137
f 170/187/138 174/186/138 183/195/138 179/196/138
f 172/191/139 171/190/139 180/198/139 181/201/139
f 169/193/140 172/191/140 181/201/140 178/202/140
f 177/185/141 176/184/141 184/200/141 185/203/141
f 52/56/112 45/50/112 191/204/112 198/205/112
f 47/52/113 51/51/113 197/206/113 193/207/113
f 51/51/113 52/56/113 198/208/113 197/206/113
f 45/50/112 35/41/112 187/209/112 191/204/112
f 46/55/113 49/54/113 195/210/113 192/211/113
f 35/41/112 37/40/112 189/212/112 187/209/112
f 48/53/113 50/57/113 196/213/113 194/214/113
f 144/215/113 46/216/113 192/217/113 201/218/113
f 36/39/112 38/43/112 190/219/112 188/220/112
f 34/221/112 131/222/112 199/223/112 186/224/112
f 131/222/112 138/225/112 200/226/112 199/223/112
f 49/54/113 48/53/113 194/214/113 195/210/113
f 37/40/112 36/39/112 188/220/112 189/212/112
f 150/227/113 144/215/113 201/218/113 202/228/113
f 50/57/113 47/52/113 193/207/113 196/213/113
f 38/43/112 34/42/112 186/229/112 190/219/112
f 197/206/113 198/208/113 1/230/113 214/231/113
f 190/219/112 186/229/112 203/232/112 207/233/112
f 198/205/112 191/204/112 208/234/112 1/235/112
f 191/204/112 187/209/112 204/236/112 208/234/112
f 186/224/112 199/223/112 215/237/112 203/238/112
f 192/211/113 195/210/113 212/239/113 209/240/113
f 199/223/112 200/226/112 216/241/112 215/237/112
f 194/214/113 196/213/113 213/242/113 211/243/113
f 201/218/113 192/217/113 209/244/113 217/245/113
f 195/210/113 194/214/113 211/243/113 212/239/113
f 187/209/112 189/212/112 206/246/112 204/236/112
f 202/228/113 201/218/113 217/245/113 218/247/113
f 196/213/113 193/207/113 210/248/113 213/242/113
f 188/220/112 190/219/112 207/233/112 205/249/112
f 193/207/113 197/206/113 214/231/113 210/248/113
f 189/212/112 188/220/112 205/249/112 206/246/112
